<?xml version="1.0" encoding="UTF-8"?>
<svg id="Layer_1" xmlns="http://www.w3.org/2000/svg" version="1.1" viewBox="0 0 612 792">
  <!-- Generator: Adobe Illustrator 29.7.1, SVG Export Plug-In . SVG Version: 2.1.1 Build 8)  -->
  <defs>
    <style>
      .st0 {
        fill: none;
      }

      .st1 {
        fill: #21201f;
      }

      .st2 {
        fill: #fff;
      }
    </style>
  </defs>
  <path class="st0" d="M234.4,604.6c-.3-3.7-.6-7.8-.8-12.1-15.5,14.1-30.4,27.9-44.4,40.8-12.8,11.8-24.9,23-35.8,32.9v12.8c8.8-8,18.2-16.8,28.1-25.9,16.5-15.3,34.4-31.8,53-48.6Z"/>
  <path class="st0" d="M232.8,578.6c-.2-4.4-.4-9-.5-13.9-15.2,13.8-29.8,27.3-43.5,40-12.7,11.7-24.6,22.8-35.4,32.6v14.3c8.9-8.1,18.5-17,28.4-26.2,15.9-14.7,33.1-30.6,51-46.8Z"/>
  <path class="st0" d="M231.9,551.9c0-5.1-.2-10.3-.2-15.7-15.1,13.8-29.7,27.3-43.4,39.9-12.5,11.6-24.4,22.5-35,32.2v15.8c9-8.2,18.7-17.2,28.8-26.6,15.6-14.4,32.3-29.9,49.8-45.7Z"/>
  <path class="st0" d="M231.8,524.6c0-5.8.2-11.7.3-17.7-15.4,14-30.2,27.7-44.1,40.6-12.4,11.4-24.1,22.3-34.7,31.9v17.4c9.1-8.3,18.9-17.4,29.2-26.9,15.4-14.3,32-29.6,49.2-45.2Z"/>
  <path class="st0" d="M232.5,496.5c.3-6.5.6-13.1,1-19.8-16,14.6-31.5,28.8-45.9,42.2-12.2,11.3-23.8,22-34.3,31.5v18.9c9.2-8.4,19.2-17.6,29.6-27.3,15.5-14.3,32.2-29.8,49.5-45.5Z"/>
  <path class="st0" d="M330.3,550.5c34.7-27,68.3-49.5,97.4-62.1v-14.5c-29.5,13.7-63.7,37.5-98.9,65.5.5,3.7,1,7.4,1.5,11.1Z"/>
  <path class="st0" d="M332.6,565.5l-2.7,2c-41.1,30.9-83.3,69.2-83.7,69.6l-2.4,2.2s0,0,0,0c0,0,0,0,0,0l-5.3,4.8h0c-16.9,15.3-34,31.3-49,45.1-12.9,12-25.2,24.2-36.2,34.3v10.5c8.6-7.8,17.7-16.3,27.3-25.2,73.9-68.4,174.8-161.7,247-192.8v-13.3c-28.4,13.2-61.2,35.9-95,62.5v.2Z"/>
  <path class="st0" d="M165.5,742.1h8.9c1.9-1.8,3.9-3.6,5.8-5.4,74-68.5,175-161.9,247.4-193v-12.1c-69.6,32.5-166.2,121.8-237.4,187.6-8.6,8-16.9,15.6-24.7,22.8Z"/>
  <path class="st0" d="M236.6,629.3c-.3-2.4-.6-5.6-1-9.6-16.1,14.6-31.6,29-46.1,42.4-13,12-25.2,23.3-36.2,33.3v11.2c8.8-8,18.2-16.8,28.1-25.9,16.8-15.5,36.1-33.9,55.2-51.3Z"/>
  <path class="st0" d="M204.2,742.1c70.9-65.2,158.7-143,223.5-170.8v-10.8c-67.5,31.6-160.3,116.5-230.7,181.6h7.2Z"/>
  <path class="st0" d="M331.7,742.1c34.2-26.3,67.3-48.2,96-60.3v-5.9c-29.5,14-63.9,38.1-99,66.3h3.1Z"/>
  <path class="st0" d="M297.4,742.1c46-38.2,92.1-71.8,130.2-87.9v-7.2c-39.2,18.5-87,55-134,95.1h3.7Z"/>
  <path class="st0" d="M428.5,157.2c-12.6,8.1-22.9,18.6-32.8,33.9,10.4-5.4,21-10.9,31.9-16.3l.9-17.7Z"/>
  <path class="st0" d="M369.7,742.1c20.5-13.8,40.1-25.2,58-32.7v-4.7c-18.7,8.9-39.4,21.9-61.1,37.4h3.1Z"/>
  <path class="st0" d="M265.2,742.1c56.1-49,115.4-95.5,162.5-115.5v-8.4c-48.5,22.8-110.2,73.3-167.1,123.9h4.7Z"/>
  <path class="st0" d="M324.7,499.9c36.6-28.9,72.3-53.3,102.9-66.7v-17c-30.8,14.2-66.9,39.6-103.8,69.2.2,4.7.5,9.5.9,14.4Z"/>
  <path class="st0" d="M241.1,406.3c.8-4.9,1.6-9.9,2.5-14.8-8.1,7.4-16.1,14.8-24,22.1-23.4,21.7-45.6,42.1-66.3,60v13.3c9.5-8.7,19.9-18.3,30.7-28.3,17.7-16.4,37-34.2,57-52.2Z"/>
  <path class="st0" d="M236.9,437.6c.9-8.2,2-16.5,3.2-24.8-18.7,16.9-36.6,33.5-53.2,48.8-11.9,11-23.2,21.5-33.5,30.8v21.9c9.4-8.6,19.6-18,30.3-28,16.6-15.3,34.5-31.9,53.2-48.8Z"/>
  <path class="st0" d="M234.3,742.1c64.5-58.2,137.5-119.3,193.4-143.2v-9.6c-57.8,27.1-134.3,93.4-199.2,152.8h5.8Z"/>
  <path class="st0" d="M234.1,467.6c.5-7.3,1.2-14.7,1.9-22.2-17.1,15.5-33.5,30.7-48.8,44.8-12.1,11.2-23.5,21.8-33.9,31.2v20.4c9.3-8.5,19.4-17.8,30-27.6,15.9-14.7,33-30.5,50.8-46.6Z"/>
  <path class="st0" d="M327.1,525.6c35.8-28.1,70.6-51.7,100.6-64.7v-15.7c-30.3,14-65.7,38.8-101.9,67.8.4,4.2.8,8.4,1.3,12.7Z"/>
  <path class="st0" d="M323.3,446c37.1-29.5,73.4-54.4,104.4-68v-19.4c-30.8,14.1-66.8,39.4-103.7,68.9-.3,6-.6,12.2-.7,18.5Z"/>
  <path class="st0" d="M327.8,387.5c35.5-28,70.2-51.6,99.9-64.7v-21.9c-28.7,13-61.9,35.8-96.1,62.7-1.4,7.5-2.7,15.4-3.8,23.9Z"/>
  <path class="st0" d="M427.7,252.2c-24,11-50.6,27.7-81.1,50.9-1.7,5.7-3.5,11.9-5.4,18.8,30.8-23.4,60.5-42.9,86.5-54.5v-15.3Z"/>
  <path class="st0" d="M333.1,355.8c33.7-26.1,66.3-48.1,94.5-60.6v-23.1c-26.5,12-56.8,32.3-88.2,56.4-2.1,8.2-4.3,17.3-6.3,27.2Z"/>
  <path class="st0" d="M324.6,417.4c36.6-29,72.4-53.6,103-67v-20.6c-30.1,13.7-65.1,38.1-101,66.7-.8,6.7-1.5,13.7-2,21Z"/>
  <path class="st0" d="M323.4,473.4c37.1-29.4,73.3-54.3,104.2-67.8v-18.2c-31,14.2-67.4,39.8-104.5,69.6,0,5.3,0,10.8.2,16.3Z"/>
  <g>
    <path d="M438.7,41.6c0-1.2-1-2.1-2.1-2.1s-2.1.9-2.1,2l-4.7,93.1c2.9,0,5.9.1,9,.4V41.6Z"/>
    <path d="M356.7,225c.6-3.7.6-7.9-.3-12.5-88.5,49.6-156.7,99.1-203.1,136.6l-5.5-306.8c0-1.5-1.3-2.7-2.8-2.7s-2.8,1.2-2.8,2.8v330l9-7.4c45.2-37.2,114.2-88.4,205.4-139.9Z"/>
    <path d="M438.7,181.7v-30.3c-3.5,1.8-6.9,3.7-10.1,5.8l-.9,17.7c-10.9,5.4-21.5,10.8-31.9,16.3-1.1,1.7-2.1,3.4-3.2,5.2-1.2,4-2.5,7.6-3.8,11,15.1-8.1,30.7-16.1,46.8-24l3.1-1.5Z"/>
    <path d="M238.5,644.2s1.8-1.6,0,0h0Z"/>
  </g>
  <path class="st1" d="M431,238.8c-27.2,11.3-57.5,29.9-92.6,56.8l-1.4,1.1-.5,1.7c-13.1,44.4-37.3,126.8-15.8,262.3-29.9,22.7-59.9,48.8-73.8,61.1-3.3-33.4-11.2-140.9,10.7-244.5l3.5-16.7-12.6,11.5c-12.3,11.2-24.5,22.5-36.4,33.4-24.1,22.3-46.8,43.3-67.9,61.4l-1.9,1.6v284.6h296.3V235.6l-7.6,3.2ZM427.7,488.4c-29,12.6-62.7,35.1-97.4,62.1-.6-3.8-1.1-7.5-1.5-11.1,35.2-28,69.4-51.8,98.9-65.5v14.5ZM427.7,460.8c-29.9,13-64.8,36.6-100.6,64.7-.5-4.3-.9-8.5-1.3-12.7,36.2-29,71.6-53.8,101.9-67.8v15.7ZM427.7,433.2c-30.6,13.3-66.3,37.7-102.9,66.7-.3-4.9-.6-9.7-.9-14.4,36.9-29.6,73-55,103.8-69.2v17ZM427.7,405.6c-30.9,13.5-67.2,38.4-104.2,67.8-.2-5.6-.2-11-.2-16.3,37.1-29.8,73.5-55.4,104.5-69.6v18.2ZM427.7,378c-31,13.6-67.2,38.5-104.4,68,.1-6.4.4-12.5.7-18.5,36.8-29.5,72.9-54.8,103.7-68.9v19.4ZM326.6,396.4c35.9-28.6,71-53,101-66.7v20.6c-30.6,13.4-66.4,38-103,67,.5-7.3,1.2-14.3,2-21ZM331.6,363.6c34.2-26.9,67.4-49.6,96.1-62.7v21.9c-29.7,13.1-64.3,36.7-99.9,64.7,1.1-8.4,2.4-16.4,3.8-23.9ZM339.5,328.5c31.4-24.2,61.7-44.4,88.2-56.4v23.1c-28.2,12.5-60.9,34.4-94.5,60.6,2-9.9,4.2-19,6.3-27.2ZM346.6,303.2c30.5-23.2,57.1-39.9,81.1-50.9v15.3c-26,11.5-55.7,31-86.5,54.5,1.9-6.9,3.7-13.2,5.4-18.8ZM246.3,637.1c.4-.4,42.6-38.8,83.7-69.6l2.6-2.2c33.8-26.7,66.7-49.3,95-62.5v13.3c-72.2,31.1-173.1,124.4-247,192.8-9.6,8.9-18.7,17.3-27.3,25.2v-10.5c11-10,23.2-22.3,36.2-34.3,15-13.8,32.1-29.8,49-45.2,1.8-1.6,5.4-4.9,5.4-4.9,0,0,0,0,0,0l2.4-2.2ZM153.3,473.6c20.7-17.8,42.9-38.3,66.3-60,7.8-7.2,15.9-14.7,24-22.1-.9,5-1.7,9.9-2.5,14.8-20,18-39.3,35.9-57,52.2-10.9,10-21.2,19.6-30.7,28.3v-13.3ZM153.3,521.4c10.4-9.4,21.8-20,33.9-31.2,15.3-14.1,31.7-29.3,48.8-44.8-.8,7.5-1.4,14.9-1.9,22.2-17.8,16.1-34.9,32-50.8,46.6-10.6,9.8-20.7,19.1-30,27.6v-20.4ZM153.3,550.4c10.5-9.5,22.1-20.2,34.3-31.5,14.4-13.3,29.8-27.6,45.9-42.2-.4,6.7-.8,13.3-1,19.8-17.4,15.7-34.1,31.2-49.5,45.5-10.4,9.6-20.4,18.9-29.6,27.3v-18.9ZM153.3,579.4c10.6-9.6,22.3-20.4,34.7-31.9,13.9-12.8,28.7-26.6,44.1-40.6-.2,6-.3,11.9-.3,17.7-17.2,15.6-33.8,31-49.2,45.2-10.3,9.5-20.1,18.6-29.2,26.9v-17.4ZM153.3,608.3c10.7-9.7,22.5-20.7,35-32.2,13.7-12.6,28.2-26.1,43.4-39.9,0,5.4,0,10.6.2,15.7-17.4,15.8-34.2,31.3-49.8,45.7-10.1,9.4-19.8,18.3-28.8,26.6v-15.8ZM153.3,637.3c10.8-9.8,22.8-20.9,35.4-32.6,13.7-12.7,28.3-26.2,43.5-40,.2,4.8.3,9.5.5,13.9-17.9,16.2-35.1,32.1-51,46.8-10,9.2-19.6,18.1-28.4,26.2v-14.3ZM153.3,666.3c10.9-9.9,23-21.1,35.8-32.9,14-12.9,28.9-26.7,44.4-40.8.3,4.3.5,8.4.8,12.1-18.6,16.8-36.4,33.3-53,48.6-9.9,9.1-19.3,17.8-28.1,25.9v-12.8ZM153.3,695.3c11-9.9,23.2-21.3,36.2-33.3,14.5-13.4,30-27.7,46.1-42.4.4,4,.7,7.3,1,9.6-19.1,17.4-38.4,35.8-55.2,51.3-9.9,9.1-19.3,17.8-28.1,25.9v-11.2ZM236.9,437.6c-18.7,16.9-36.6,33.5-53.2,48.8-10.7,9.9-20.9,19.4-30.3,28v-21.9c10.3-9.3,21.6-19.8,33.5-30.8,16.6-15.3,34.6-32,53.2-48.8-1.2,8.3-2.3,16.6-3.2,24.8ZM190.3,719.3c71.2-65.9,167.8-155.2,237.4-187.6v12.1c-72.3,31.1-173.4,124.5-247.4,193-2,1.8-3.9,3.6-5.8,5.4h-8.9c7.8-7.2,16.1-14.8,24.7-22.8ZM427.7,560.4v10.8c-64.8,27.8-152.6,105.6-223.5,170.8h-7.2c70.4-65.1,163.2-150.1,230.7-181.6ZM427.7,589.3v9.6c-55.9,23.9-128.9,85-193.4,143.2h-5.8c65-59.4,141.4-125.7,199.2-152.8ZM427.7,618.1v8.4c-47.1,20-106.4,66.6-162.5,115.5h-4.7c56.9-50.7,118.6-101.1,167.1-123.9ZM427.7,647v7.2c-38.2,16.2-84.3,49.7-130.2,87.9h-3.7c46.9-40.1,94.7-76.6,134-95.1ZM427.7,675.8v5.9c-28.6,12.1-61.8,34-96,60.3h-3.1c35.2-28.2,69.5-52.3,99-66.3ZM427.7,704.6v4.7c-17.9,7.5-37.5,18.9-58,32.7h-3.1c21.6-15.5,42.3-28.5,61.1-37.4Z"/>
  <g>
    <path class="st2" d="M438.7,135c-3.1-.3-6.1-.4-9-.4-34.9,0-57.8,17.4-62.9,20.3-40-20.3-85.4,21.5-85.4,21.5,0,0,39.1-2,36.9,14.5-3,22.5-54.2,55-54.2,55,0,0,63-33.1,91.2-38,.5,1.6.9,3.1,1.2,4.5.9,4.6.9,8.7.3,12.5-2.5,15.5-15.1,23.9-15.1,23.9,0,0,29.9,1.8,47.2-41.6,1.3-3.4,2.6-7,3.8-11,1.1-1.8,2.1-3.5,3.2-5.2,9.8-15.3,20.2-25.8,32.8-33.9,3.2-2.1,6.6-4,10.1-5.8,8-4.1,16.8-7.5,26.8-10.8-9.5-3.2-18.5-4.9-26.8-5.6Z"/>
    <path class="st1" d="M342.2,253.1c-.4,0-.7,0-.8,0-1.8-.1-3.3-1.4-3.8-3.1s.2-3.6,1.7-4.6c0,0,11.1-7.7,13.3-21.1.6-3.5.5-7.2-.3-11,0-.1,0-.3,0-.4-28.8,6.7-85.6,36.5-86.2,36.8-2,1.1-4.5.3-5.6-1.6-1.1-2-.5-4.5,1.4-5.7,13.8-8.8,50-35.2,52.3-52,.2-1.5-.2-2.6-1.1-3.7-4.9-5.3-21.8-6.5-31.3-6-1.8,0-3.4-.9-4.1-2.6-.7-1.6-.3-3.5,1-4.7.5-.4,12-11,28.7-19.1,21.7-10.5,42.1-11.9,59.3-4.1,0,0,.2-.1.3-.2,8.4-5.4,30.6-19.6,62.9-19.6h0c3.1,0,6.2.1,9.3.4,9.2.8,18.6,2.7,27.8,5.8,1.7.6,2.9,2.2,2.9,4s-1.2,3.4-2.9,4c-10.6,3.5-18.9,6.9-26.2,10.6-3.5,1.8-6.7,3.6-9.7,5.6-12.3,7.9-22.3,18.3-31.5,32.7-1,1.6-1.9,3.1-2.9,4.6-1.1,3.7-2.4,7.4-3.8,10.8-16.8,42.2-45.3,44.3-50.6,44.3ZM355.2,203.7c1.8,0,3.5,1.2,4,2.9.5,1.6.9,3.3,1.3,5,.9,4.7,1,9.4.3,14-1.1,6.6-3.7,12-6.7,16.3,9.2-3.9,21.6-13.4,30.7-36.2,1.3-3.4,2.6-6.9,3.7-10.6,0-.3.2-.7.4-1,1-1.8,2.1-3.5,3.3-5.3,9.9-15.4,20.7-26.6,34-35.2,3.3-2.1,6.7-4.1,10.5-6,4.5-2.3,9.3-4.4,14.6-6.5-4.4-.9-8.8-1.6-13.1-1.9-2.9-.2-5.7-.4-8.6-.4h0c-29.9,0-50.6,13.3-58.4,18.2-1,.6-1.8,1.2-2.4,1.5-1.2.7-2.8.8-4,.1-26.7-13.6-56.8,3.3-71.5,13.7.9,0,1.8.1,2.8.2,11.2,1.1,19,3.9,23,8.3,2.7,2.9,3.8,6.6,3.3,10.5-1.2,8.9-8.7,19.7-22.2,32.1,18.8-8.6,40.4-17.4,54.3-19.8.2,0,.5,0,.7,0Z"/>
  </g>
</svg>